<svg xmlns="http://www.w3.org/2000/svg" width="16" height="15" fill="none" viewBox="0 0 16 15">
  <path fill="#4ECCA3" fill-rule="evenodd" d="M3.941.021c-.996.133-1.83.565-2.537 1.318C.77 2.012.389 2.726.167 3.653c-.384 1.61-.105 3.195.827 4.684.598.954 1.368 1.83 2.786 3.165.901.85 3.649 3.327 3.782 3.41.126.079.173.088.438.088s.312-.01.438-.088c.133-.083 2.887-2.566 3.782-3.41 1.421-1.34 2.189-2.212 2.786-3.165.932-1.489 1.211-3.074.826-4.684-.221-.927-.603-1.64-1.236-2.314C13.966.668 13.29.281 12.404.083c-.442-.1-1.262-.108-1.651-.018-1.08.25-1.91.822-2.667 1.838L8 2.02l-.086-.116C7.17.905 6.353.333 5.311.082c-.31-.075-1.023-.106-1.37-.06Z" clip-rule="evenodd"/>
</svg>