<svg xmlns="http://www.w3.org/2000/svg" width="17" height="17" fill="none" viewBox="0 0 17 17">
  <path fill="#fff" fill-rule="evenodd" d="M7.9.008c-.064.008-.258.03-.432.048a8.53 8.53 0 0 0-3.295 1.116A8.603 8.603 0 0 0 1.164 4.18 8.658 8.658 0 0 0 .04 7.473c-.053.408-.053 1.655 0 2.063a8.658 8.658 0 0 0 1.124 3.293 8.604 8.604 0 0 0 3.009 3.007c.973.58 2.104.966 3.295 1.124.407.053 1.655.053 2.063 0 2.072-.274 3.829-1.184 5.262-2.726a8.384 8.384 0 0 0 1.794-3.068c.3-.91.413-1.635.413-2.662 0-.76-.032-1.095-.169-1.763-.467-2.29-1.94-4.337-4.005-5.569A8.658 8.658 0 0 0 9.564.055C9.272.017 8.107-.015 7.9.008Zm1.515 4.255c.492.997.91 1.813.93 1.813.045 0 3.918.563 3.957.576.022.007-1.678 1.685-2.753 2.719l-.128.123.34 1.985c.187 1.092.333 1.993.324 2.002-.01.01-.816-.403-1.793-.916-.976-.514-1.783-.934-1.793-.934-.01 0-.816.42-1.793.934-.976.513-1.783.925-1.792.916-.01-.01.136-.91.324-2.002l.34-1.985-.128-.123C4.375 8.337 2.675 6.659 2.697 6.65c.038-.012 3.911-.575 3.957-.575.02 0 .438-.816.93-1.813.491-.997.903-1.813.915-1.813.012 0 .425.816.916 1.813Zm-1.498 1.58c-.49.98-.575 1.131-.648 1.146-.123.024-2.391.351-2.438.351-.022 0 .378.409.889.908l.93.908-.213 1.238c-.117.68-.203 1.246-.193 1.256.01.01.523-.245 1.137-.568l1.118-.587 1.118.587c.615.323 1.127.579 1.137.568.011-.01-.076-.576-.193-1.256l-.212-1.238.93-.908c.51-.5.91-.908.889-.908-.047 0-2.315-.327-2.438-.351-.073-.015-.159-.166-.649-1.147-.31-.621-.572-1.13-.582-1.13-.01 0-.271.509-.582 1.13Z" clip-rule="evenodd"/>
</svg>